# xmcd CD database file
#
# Track frame offsets:
#	150
#	17784
#	40408
#	62658
#	83094
#	102370
#	120899
#	138096
#	162007
#	181710
#	202951
#	227068
#	249455
#	266102
#	286753
#	308147
#
# Disc length: 4560 seconds
#
# Revision: 0
# Processed by: cddbd v1.5.2PL0 Copyright (c) Steve Scherf et al.
# Submitted via: CDex 1.70beta2
#
DISCID=c911ce10
DTITLE=ERA - Greatest Hits(Come Into My World) 2
DYEAR=2008
DGENRE=New Age
TTITLE0=Divano
TTITLE1=Dark Voices
TTITLE2=Hymne
TTITLE3=Enae Volare Mezzo
TTITLE4=Devore Amante
TTITLE5=Misere Mani
TTITLE6=If You Shout
TTITLE7=Come Into My World
TTITLE8=Madona
TTITLE9=Omen Sore
TTITLE10=Thousand Worlds
TTITLE11=After Thousand Worlds
TTITLE12=Sombre Day
TTITLE13=Kilimandjaro
TTITLE14=Celebration
TTITLE15=Infinity Ocean
EXTD=YEAR: 2008
EXTT0=
EXTT1=
EXTT2=
EXTT3=
EXTT4=
EXTT5=
EXTT6=
EXTT7=
EXTT8=
EXTT9=
EXTT10=
EXTT11=
EXTT12=
EXTT13=
EXTT14=
EXTT15=
PLAYORDER=
